HIERARCHY
ROOT Hips
{
	OFFSET 0.000000 0.000000 0.000000
	CHANNELS 6 Xposition Yposition Zposition Xrotation Yrotation Zrotation
	JOINT LeftUpLeg_virtual
	{
		OFFSET 0.000000 0.000000 0.000000
		CHANNELS 3 Xrotation Yrotation Zrotation
		JOINT LeftUpLeg
		{
			OFFSET 10.205400 -3.823500 0.155100
			CHANNELS 3 Xrotation Yrotation Zrotation
			JOINT LeftLeg
			{
				OFFSET 0.708757 -12.982077 0.567790
				CHANNELS 3 Xrotation Yrotation Zrotation
				JOINT LeftFoot
				{
					OFFSET -0.708756 -10.717838 -2.184338
					CHANNELS 3 Xrotation Yrotation Zrotation
					JOINT LeftToeBase
					{
						OFFSET 0.108149 -7.191104 7.560241
						CHANNELS 3 Xrotation Yrotation Zrotation
						JOINT LeftToe_End
						{
							OFFSET 0.070230 0.081724 4.490308
							CHANNELS 3 Xrotation Yrotation Zrotation
							End Site
							{
								OFFSET 0 0 0
							}
						}
					}
				}
			}
		}
	}
	JOINT RightUpLeg_virtual
	{
		OFFSET 0.000000 0.000000 0.000000
		CHANNELS 3 Xrotation Yrotation Zrotation
		JOINT RightUpLeg
		{
			OFFSET -10.205400 -3.823500 0.005500
			CHANNELS 3 Xrotation Yrotation Zrotation
			JOINT RightLeg
			{
				OFFSET -0.708756 -12.982134 0.610632
				CHANNELS 3 Xrotation Yrotation Zrotation
				JOINT RightFoot
				{
					OFFSET 0.708754 -10.717769 -1.945823
					CHANNELS 3 Xrotation Yrotation Zrotation
					JOINT RightToeBase
					{
						OFFSET -0.108140 -7.191069 7.372968
						CHANNELS 3 Xrotation Yrotation Zrotation
						JOINT RightToe_End
						{
							OFFSET -0.070227 0.081735 4.479403
							CHANNELS 3 Xrotation Yrotation Zrotation
							End Site
							{
								OFFSET 0 0 0
							}
						}
					}
				}
			}
		}
	}
	JOINT Spine_virtual
	{
		OFFSET 0.000000 0.000000 0.000000
		CHANNELS 3 Xrotation Yrotation Zrotation
		JOINT Spine
		{
			OFFSET 0.000000 6.876099 0.125700
			CHANNELS 3 Xrotation Yrotation Zrotation
			JOINT Spine1
			{
				OFFSET 0.000000 5.730043 0.104720
				CHANNELS 3 Xrotation Yrotation Zrotation
				JOINT Spine1_split
				{
					OFFSET 0.000000 5.730043 0.104720
					CHANNELS 3 Xrotation Yrotation Zrotation
					JOINT Spine2
					{
						OFFSET 0.000000 5.730043 0.104720
						CHANNELS 3 Xrotation Yrotation Zrotation
						JOINT Neck_virtual
						{
							OFFSET 0.000000 0.000000 0.000000
							CHANNELS 3 Xrotation Yrotation Zrotation
							JOINT Neck
							{
								OFFSET 0.000000 10.314075 0.188496
								CHANNELS 3 Xrotation Yrotation Zrotation
								JOINT Head
								{
									OFFSET 0.000000 7.643700 -2.377400
									CHANNELS 3 Xrotation Yrotation Zrotation
									JOINT HeadTop_End
									{
										OFFSET 0.000000 43.788605 -13.619600
										CHANNELS 3 Xrotation Yrotation Zrotation
										End Site
										{
											OFFSET 0 0 0
										}
									}
								}
							}
						}
						JOINT LeftShoulder_virtual
						{
							OFFSET 0.000000 0.000000 0.000000
							CHANNELS 3 Xrotation Yrotation Zrotation
							JOINT LeftShoulder
							{
								OFFSET 2.196100 4.412489 0.087492
								CHANNELS 3 Xrotation Yrotation Zrotation
								JOINT LeftShoulder_split
								{
									OFFSET 2.196100 4.412489 0.087492
									CHANNELS 3 Xrotation Yrotation Zrotation
									JOINT LeftArm
									{
										OFFSET 8.771219 -2.981674 -0.026999
										CHANNELS 3 Xrotation Yrotation Zrotation
										JOINT LeftForeArm
										{
											OFFSET 8.512804 0.000000 -0.000000
											CHANNELS 3 Xrotation Yrotation Zrotation
											JOINT LeftHand
											{
												OFFSET 18.484802 0.000000 -0.000000
												CHANNELS 3 Xrotation Yrotation Zrotation
												End Site
												{
													OFFSET 0 0 0
												}
											}
										}
									}
								}
							}
						}
						JOINT RightShoulder_virtual
						{
							OFFSET 0.000000 0.000000 0.000000
							CHANNELS 3 Xrotation Yrotation Zrotation
							JOINT RightShoulder
							{
								OFFSET -2.196100 4.412496 0.070690
								CHANNELS 3 Xrotation Yrotation Zrotation
								JOINT RightShoulder_split
								{
									OFFSET -2.196100 4.412496 0.070690
									CHANNELS 3 Xrotation Yrotation Zrotation
									JOINT RightArm
									{
										OFFSET -8.771282 -2.981682 -0.094208
										CHANNELS 3 Xrotation Yrotation Zrotation
										JOINT RightForeArm
										{
											OFFSET -8.494598 0.000000 0.000000
											CHANNELS 3 Xrotation Yrotation Zrotation
											JOINT RightHand
											{
												OFFSET -18.483803 0.000000 0.000001
												CHANNELS 3 Xrotation Yrotation Zrotation
												End Site
												{
													OFFSET 0 0 0
												}
											}
										}
									}
								}
							}
						}
					}
				}
			}
		}
	}
}
MOTION
Frames: 4
Frame Time: 0.03333333
0.129845 31.086567 18.730753 0.000000 0.000000 0.000000 9.740009 -5.532460 -0.013517 -31.449343 3.207650 20.820047 49.336454 4.493453 -0.547168 -24.993223 0.635057 -18.510386 -0.109849 0.000004 -0.000005 0.000000 0.000000 0.000000 9.740009 -5.532460 -0.013517 -38.704158 -0.323503 -9.732969 51.137568 4.001782 -4.250028 -20.029456 -14.281495 12.599901 1.051110 -0.000007 0.000000 0.000000 0.000000 0.000000 9.740009 -5.532460 -0.013517 5.627304 0.229294 -1.218274 2.821243 -0.553561 -0.076055 0.000000 0.000000 0.000000 0.000000 0.000000 0.000000 1.233432 -0.970669 0.984312 12.744447 -0.360744 2.014636 -31.319730 0.726274 -5.428400 0.000000 0.000000 0.000000 1.233432 -0.970669 0.984312 5.913647 -7.807887 19.928498 0.000000 0.000000 0.000000 -34.306210 -17.647698 -14.146181 180.000005 -55.705670 179.999991 0.000000 0.000000 0.000000 1.233432 -0.970669 0.984312 -1.553041 -8.369790 -14.911046 0.000000 0.000000 0.000000 -30.430006 36.040248 26.479115 179.999991 58.847503 179.999991 0.000000 0.000000 0.000000 
0.089510 31.646015 19.021767 0.000000 0.000000 0.000000 10.280028 -5.253917 0.037343 -29.268105 4.167603 20.358364 43.769147 4.821243 -0.702215 -22.405527 0.111507 -18.125089 -0.109843 -0.000001 -0.000003 0.000000 0.000000 0.000000 10.280028 -5.253917 0.037343 -36.062224 -0.781086 -9.575556 46.061180 3.486963 -4.188949 -18.105537 -14.091040 12.741884 1.031058 -0.000007 0.000000 0.000000 0.000000 0.000000 10.280028 -5.253917 0.037343 5.319777 0.209051 -1.186528 2.188030 -0.566218 -0.158978 0.000000 0.000000 0.000000 0.000000 0.000000 0.000000 0.272737 -0.972617 0.898068 12.585918 -0.308784 2.188553 -30.323018 0.842205 -5.312839 0.000000 0.000000 0.000000 0.272737 -0.972617 0.898068 5.876927 -7.979695 20.002223 0.000000 0.000000 0.000000 -34.254686 -16.965589 -14.997624 179.999991 -55.552466 180.000005 0.000000 0.000000 0.000000 0.272737 -0.972617 0.898068 -1.569648 -8.377651 -14.965192 0.000000 0.000000 0.000000 -29.516143 36.059922 26.253343 179.999991 58.643642 179.999991 0.000000 0.000000 0.000000 
0.050049 32.132393 19.268633 0.000000 0.000000 0.000000 10.795047 -4.878906 0.025515 -27.345424 4.967797 20.037031 38.499983 5.069386 -0.954778 -19.821557 -0.492444 -17.720009 -0.109855 -0.000001 -0.000004 0.000000 0.000000 0.000000 10.795047 -4.878906 0.025515 -33.563710 -1.189119 -9.386457 41.195057 2.876342 -4.093188 -16.205413 -13.901056 12.853733 1.011018 0.000002 0.000005 0.000000 0.000000 0.000000 10.795047 -4.878906 0.025515 5.077534 0.195500 -1.133190 1.666085 -0.571975 -0.208916 0.000000 0.000000 0.000000 0.000000 0.000000 0.000000 -0.559324 -0.968294 0.843850 12.301275 -0.295255 2.357713 -29.149553 0.800226 -5.276033 0.000000 0.000000 0.000000 -0.559324 -0.968294 0.843850 5.878848 -8.060536 20.101148 0.000000 0.000000 0.000000 -33.982237 -16.856642 -15.686673 -179.999991 -55.612411 -179.999978 0.000000 0.000000 0.000000 -0.559324 -0.968294 0.843850 -1.587339 -8.450121 -14.986750 0.000000 0.000000 0.000000 -28.633707 36.187732 26.024569 179.999964 58.852830 -179.999991 0.000000 0.000000 0.000000 
0.016546 32.505684 19.444687 0.000000 0.000000 0.000000 11.064963 -4.509004 0.004952 -25.620489 5.626772 19.838112 34.025841 5.230072 -1.302891 -17.547997 -1.075398 -17.312549 -0.109852 0.000003 0.000006 0.000000 0.000000 0.000000 11.064963 -4.509004 0.004952 -31.382479 -1.526175 -9.262414 37.183785 2.355211 -3.972175 -14.611842 -13.732175 12.878652 0.990967 0.000001 -0.000003 0.000000 0.000000 0.000000 11.064963 -4.509004 0.004952 4.914301 0.187100 -1.062188 1.280402 -0.581400 -0.243914 0.000000 0.000000 0.000000 0.000000 0.000000 0.000000 -1.235876 -0.968075 0.803034 12.017599 -0.320258 2.501738 -27.789523 0.599162 -5.297343 0.000000 0.000000 0.000000 -1.235876 -0.968075 0.803034 5.878249 -7.672478 20.103033 0.000000 0.000000 0.000000 -33.468750 -17.978125 -16.110618 179.999991 -55.968131 179.999991 0.000000 0.000000 0.000000 -1.235876 -0.968075 0.803034 -1.619853 -8.648570 -15.036421 0.000000 0.000000 0.000000 -28.202461 36.406882 26.123064 179.999991 59.564563 179.999991 0.000000 0.000000 0.000000 
